<?xml version="1.0" encoding="UTF-8"?>
<svg width="95px" height="108px" viewBox="0 0 95 108" version="1.1" xmlns="http://www.w3.org/2000/svg" xmlns:xlink="http://www.w3.org/1999/xlink">
  <g id="Page-1" stroke="none" stroke-width="1" fill="none" fill-rule="evenodd">
    <g id="heroku-logo" fill="#000000">
        <path d="M0,15.4163785 C0,6.90214775 6.83216572,0 15.2107026,0 L79.7892974,0 C88.1899365,0 95,6.92017812 95,15.4163785 L95,92.5836215 C95,101.097852 88.1678343,108 79.7892974,108 L15.2107026,108 C6.81006351,108 0,101.079822 0,92.5836215 L0,15.4163785 Z M20.3571429,94.5 L33.9284863,82.9285714 L20.3571429,71.3571429 L20.3571429,94.5 Z M69.3904067,47.5995536 C66.9596283,45.2404286 62.4961643,42.4285714 55.039465,42.4285714 C46.8619766,42.4285714 38.4432199,44.4694821 32.4205593,46.3498393 L32.4205593,13.5 L20.3571429,13.5 L20.3571429,63.6795 L28.8784386,59.9766429 C29.01566,59.9173393 42.7739864,54 55.039465,54 C61.1646647,54 62.5202911,57.2443393 62.5791002,59.9448214 L62.5791002,94.5 L74.6428571,94.5 L74.6425166,59.7857143 C74.6500563,59.0451429 74.5791837,52.633125 69.3904067,47.5995536 Z M53.5315379,32.3035714 L65.5949543,32.3035714 C71.0506344,26.3732143 73.828236,20.0725714 74.6425166,13.5 L62.5791002,13.5 C61.2491086,20.0581071 58.2724606,26.3370536 53.5315379,32.3035714 Z" id="Color"></path>
    </g>
  </g>
</svg>
