<?xml version="1.0" encoding="UTF-8" standalone="no"?>
<!DOCTYPE svg PUBLIC "-//W3C//DTD SVG 1.1//EN" "http://www.w3.org/Graphics/SVG/1.1/DTD/svg11.dtd">
<svg version="1.1" xmlns="http://www.w3.org/2000/svg" xmlns:xlink="http://www.w3.org/1999/xlink" preserveAspectRatio="xMidYMid meet" viewBox="0 0 628 460" width="600" height="600"><defs><path d="M601.1 8.85C612.15 8.85 621.1 17.81 621.1 28.85C621.1 113.7 621.1 348.26 621.1 433.11C621.1 444.16 612.15 453.11 601.1 453.11C482.15 453.11 145.3 453.11 26.35 453.11C15.3 453.11 6.35 444.16 6.35 433.11C6.35 348.26 6.35 113.7 6.35 28.85C6.35 17.81 15.3 8.85 26.35 8.85C145.3 8.85 482.15 8.85 601.1 8.85Z" id="f1TjGC1RXs"></path><path d="M458.81 302.3L604.3 453.11L313.31 453.11L22.33 453.11L167.81 302.3L313.31 151.48L458.81 302.3Z" id="b3XKf2rznE"></path><path d="M454.48 167.05L595.97 8.85L312.99 8.85L30.02 8.85L171.49 167.05L312.99 325.25L454.48 167.05Z" id="a23eP18z1H"></path><text id="b4c2fsXD7N" x="100" y="110" font-size="172" font-family="sans-serif" font-weight="normal" font-style="normal" letter-spacing="0" alignment-baseline="before-edge" transform="matrix(1 0 0 1 66.71425209820373 -88.19672131147524)" style="line-height:100%" xml:space="preserve" dominant-baseline="text-before-edge"><tspan x="169.18" dy="0em" alignment-baseline="before-edge" dominant-baseline="text-before-edge" text-anchor="start">@</tspan></text><style id="opensansnormalnormal">
    
    </style></defs><g><g><g><use xlink:href="#f1TjGC1RXs" opacity="1" fill="#ffffff" fill-opacity="1"></use><g><use xlink:href="#f1TjGC1RXs" opacity="1" fill-opacity="0" stroke="#000000" stroke-width="10" stroke-opacity="1"></use></g></g><g><use xlink:href="#b3XKf2rznE" opacity="1" fill="#ffffff" fill-opacity="1"></use><g><use xlink:href="#b3XKf2rznE" opacity="1" fill-opacity="0" stroke="#000000" stroke-width="5" stroke-opacity="1"></use></g></g><g><use xlink:href="#a23eP18z1H" opacity="1" fill="#ffffff" fill-opacity="1"></use><g><use xlink:href="#a23eP18z1H" opacity="1" fill-opacity="0" stroke="#000000" stroke-width="7" stroke-opacity="1"></use></g></g><g id="a1STSTCFqo"><use xlink:href="#b4c2fsXD7N" opacity="1" fill="#000000" fill-opacity="1"></use></g></g></g></svg>