<?xml version="1.0" encoding="UTF-8" standalone="no"?>
<!DOCTYPE svg PUBLIC "-//W3C//DTD SVG 1.1//EN" "http://www.w3.org/Graphics/SVG/1.1/DTD/svg11.dtd">
<svg version="1.1" xmlns="http://www.w3.org/2000/svg" xmlns:xlink="http://www.w3.org/1999/xlink" preserveAspectRatio="xMidYMid meet" viewBox="0 0 640 640" width="640" height="640"><defs><path d="M187.37 4.83L460.27 4.83L460.27 245.67L187.37 245.67L187.37 4.83Z" id="g1Mjv8Luw"></path><path d="M593.55 252.42C607.6 252.42 618.99 263.81 618.99 277.86C618.99 320.93 618.99 424.74 618.99 467.82C618.99 481.86 607.6 493.25 593.55 493.25C480.57 493.25 167.07 493.25 54.09 493.25C40.04 493.25 28.65 481.86 28.65 467.82C28.65 424.74 28.65 320.93 28.65 277.86C28.65 263.81 40.04 252.42 54.09 252.42C167.07 252.42 480.57 252.42 593.55 252.42Z" id="c2xIIbBNPk"></path><path d="M187.37 412.09L460.27 412.09L460.27 640L187.37 640L187.37 412.09Z" id="eHgS1LvI4"></path><path d="M571.16 315.98C571.16 323.04 564.31 328.78 555.87 328.78C547.42 328.78 540.57 323.04 540.57 315.98C540.57 308.91 547.42 303.17 555.87 303.17C564.31 303.17 571.16 308.91 571.16 315.98Z" id="d1BN7nRpqH"></path><text id="auUCqLJDw" x="214.94" y="-683.76" font-size="24" font-family="sans-serif" font-weight="normal" font-style="normal" letter-spacing="0" alignment-baseline="before-edge" transform="matrix(-1 0 0 -1 620 -30)" style="line-height:100%" xml:space="preserve" dominant-baseline="text-before-edge"><tspan x="180" dy="1.2em" alignment-baseline="before-edge" dominant-baseline="text-before-edge" text-anchor="start">ABOUT ME</tspan><tspan x="180" dy="1.2em" alignment-baseline="before-edge" dominant-baseline="text-before-edge" text-anchor="start">Mark Standen</tspan></text><style id="opensansnormalnormal">
    </style>
    
    
    
    <path d="M561.73 324.45C561.73 333.53 554.02 340.9 544.52 340.9C535.02 340.9 527.31 333.53 527.31 324.45C527.31 315.37 535.02 307.99 544.52 307.99C554.02 307.99 561.73 315.37 561.73 324.45Z" id="ah1pwPbaS"></path><path d="M509.14 324.45C509.14 333.53 501.43 340.9 491.93 340.9C482.44 340.9 474.72 333.53 474.72 324.45C474.72 315.37 482.44 307.99 491.93 307.99C501.43 307.99 509.14 315.37 509.14 324.45Z" id="c2f1fg53YL"></path><path d="M460.27 324.45C460.27 333.53 452.55 340.9 443.06 340.9C433.56 340.9 425.85 333.53 425.85 324.45C425.85 315.37 433.56 307.99 443.06 307.99C452.55 307.99 460.27 315.37 460.27 324.45Z" id="a1h3XRzpoR"></path></defs><g><g><g><use xlink:href="#g1Mjv8Luw" opacity="1" fill="#ffffff" fill-opacity="1"></use><g><use xlink:href="#g1Mjv8Luw" opacity="1" fill-opacity="0" stroke="#000000" stroke-width="6" stroke-opacity="1"></use></g></g><g><use xlink:href="#c2xIIbBNPk" opacity="1" fill="#ffffff" fill-opacity="1"></use><g><use xlink:href="#c2xIIbBNPk" opacity="1" fill-opacity="0" stroke="#000000" stroke-width="28" stroke-opacity="1"></use></g></g><g><use xlink:href="#eHgS1LvI4" opacity="1" fill="#ffffff" fill-opacity="1"></use><g><use xlink:href="#eHgS1LvI4" opacity="1" fill-opacity="0" stroke="#000000" stroke-width="6" stroke-opacity="1"></use></g></g><g><use xlink:href="#d1BN7nRpqH" opacity="1" fill="#ffffff" fill-opacity="1"></use></g><g id="b1viVw1QR7"><use xlink:href="#auUCqLJDw" opacity="1" fill="#000000" fill-opacity="1"></use></g><g><use xlink:href="#ah1pwPbaS" opacity="1" fill="#000000" fill-opacity="1"></use><g><use xlink:href="#ah1pwPbaS" opacity="1" fill-opacity="0" stroke="#000000" stroke-width="1" stroke-opacity="0.99"></use></g></g><g><use xlink:href="#c2f1fg53YL" opacity="1" fill="#000000" fill-opacity="1"></use><g><use xlink:href="#c2f1fg53YL" opacity="1" fill-opacity="0" stroke="#000000" stroke-width="1" stroke-opacity="0.99"></use></g></g><g>
    <use xlink:href="#a1h3XRzpoR" opacity="1" fill="#000000" fill-opacity="1"></use><g><use xlink:href="#a1h3XRzpoR" opacity="1" fill-opacity="0" stroke="#000000" stroke-width="1" stroke-opacity="0.99"></use></g></g></g></g>
    </svg>